<?xml version="1.0" encoding="utf-8"?>
<!-- Generator: Adobe Illustrator 25.4.1, SVG Export Plug-In . SVG Version: 6.00 Build 0)  -->
<svg version="1.1" id="Layer_1" xmlns="http://www.w3.org/2000/svg" xmlns:xlink="http://www.w3.org/1999/xlink" x="0px" y="0px"
	 viewBox="0 0 1024 1024" style="enable-background:new 0 0 1024 1024;" xml:space="preserve">
<style type="text/css">
	.st0{fill:#B71918;}
	.st1{fill:#9D9D9C;}
	.st2{font-family:'Montserrat-SemiBold';}
	.st3{font-size:112.8172px;}
</style>
<path class="st0" d="M376.3,570.16h21.24c3.73,0,6.76-3.03,6.76-6.76V340.75c0.15-0.07,0.17-0.07,0.32-0.14
	c33.55,31.09,67.09,62.16,101.31,93.87c3.1,2.87,7.92,2.86,11-0.03c24.5-22.96,48.88-45.78,73.14-68.72
	c1.59-1.5,2.87-4.17,2.91-6.32c0.23-12.67,0.15-25.35,0.14-40.56c0-2.09-2.51-3.17-4.04-1.74c-26.91,25.09-51.84,48.33-77.8,72.53
	C466.11,347.7,421.19,306,374.67,262.81c-1.95-1.81-5.13-0.44-5.13,2.22l0,298.37C369.54,567.14,372.57,570.16,376.3,570.16z"/>
<path class="st1" d="M429.27,404.18c1.26,38.37-5.59,75.76,15.05,110.21c25.14,41.95,77.57,64.57,124.63,52.36
	c49.32-12.79,85.08-57.28,85.34-107.2c0.33-62.6,0.09-125.21,0.06-187.82c0-2.34-0.17-4.68-0.39-7.91
	c-0.15-2.26-2.87-3.33-4.52-1.78c-9.69,9.14-18.32,16.93-26.1,25.49c-2.5,2.74-2.43,8.4-2.44,12.73
	c-0.17,51.15,0.1,102.3-0.22,153.45c-0.27,43.06-26.01,73.52-67.36,80.7c-44.9,7.8-90.69-27.18-89.46-72.98
	c0.72-26.89-11.78-41.36-30.29-55.02C432.91,405.93,432.12,405.65,429.27,404.18z"/>
<text transform="matrix(1 0 0 1 247.6164 713.5067)"><tspan x="0" y="0" class="st1 st2 st3">My</tspan><tspan x="169.68" y="0" class="st0 st2 st3">Unical</tspan></text>
</svg>
